<svg id="Capa_1" data-name="Capa 1" xmlns="http://www.w3.org/2000/svg" xmlns:xlink="http://www.w3.org/1999/xlink" viewBox="0 0 513 513"><defs><style>.cls-1{stroke:#fff;stroke-miterlimit:10;fill:url(#Degradado_sin_nombre_142);}.cls-2{fill:#fff;}</style><linearGradient id="Degradado_sin_nombre_142" y1="256" x2="512" y2="256" gradientUnits="userSpaceOnUse"><stop offset="0.05" stop-color="#d6d8d2"/><stop offset="0.08" stop-color="#c8cac3"/><stop offset="0.24" stop-color="#8d8f87"/><stop offset="0.46" stop-color="#8d8f87"/><stop offset="0.49" stop-color="#8d8f87"/></linearGradient></defs><path class="cls-1" d="M512,256c0,141.39-114.61,256-256,256S0,397.39,0,256,114.61,0,256,0,512,114.61,512,256Z" transform="translate(0.5 0.5)"/><path class="cls-2" d="M399.08,168.77H364.35a15,15,0,0,0,0,30h20l-123.7,123.7-45.31-45.3a15,15,0,0,0-10.6-4.39h-.11A15,15,0,0,0,194,277.32l-58.18,59.91a15,15,0,1,0,21.52,20.9l47.57-49,45.15,45.15a15,15,0,0,0,21.21,0L404.91,220.67v18a15,15,0,0,0,30,0v-34A35.87,35.87,0,0,0,399.08,168.77Z" transform="translate(0.5 0.5)"/><path class="cls-2" d="M419.91,279.2a15,15,0,0,0-15,15v84a26.69,26.69,0,0,1-26.67,26.67H133.76a26.69,26.69,0,0,1-26.67-26.67V198.77h78.35v27.37a15,15,0,0,0,30,0V147.65a40.57,40.57,0,0,1,81.13,0v21.12H256.7a15,15,0,0,0,0,30h39.87v27.37a15,15,0,1,0,30,0V147.65a70.57,70.57,0,0,0-141.13,0v21.12H92.09a15,15,0,0,0-15,15V378.24a56.73,56.73,0,0,0,56.67,56.67H378.24a56.73,56.73,0,0,0,56.67-56.67v-84A15,15,0,0,0,419.91,279.2Z" transform="translate(0.5 0.5)"/></svg>