<?xml version="1.0" encoding="utf-8"?>
<!-- Generator: Adobe Illustrator 24.1.0, SVG Export Plug-In . SVG Version: 6.00 Build 0)  -->
<svg version="1.1" id="Capa_1" xmlns="http://www.w3.org/2000/svg" xmlns:xlink="http://www.w3.org/1999/xlink" x="0px" y="0px"
	 viewBox="0 0 1186.7 254.3" style="enable-background:new 0 0 1186.7 254.3;" xml:space="preserve">
<style type="text/css">
	.st0{fill:url(#SVGID_1_);stroke:#FFFFFF;stroke-miterlimit:10;}
	.st1{fill:#FFFFFF;}
	.st2{font-family:'Constantia-Bold';}
	.st3{font-size:181.7427px;}
</style>
<g id="Capa_1-2">
	
		<linearGradient id="SVGID_1_" gradientUnits="userSpaceOnUse" x1="5.2857" y1="477.295" x2="266.6613" y2="477.295" gradientTransform="matrix(1 0 0 1 0 -350.14)">
		<stop  offset="5.000000e-02" style="stop-color:#D6D8D2"/>
		<stop  offset="8.000000e-02" style="stop-color:#C8CAC3"/>
		<stop  offset="0.24" style="stop-color:#8D8F87"/>
		<stop  offset="0.46" style="stop-color:#8D8F87"/>
		<stop  offset="0.49" style="stop-color:#8D8F87"/>
	</linearGradient>
	<path class="st0" d="M266.7,127.1c0,70.2-58.5,127.2-130.7,127.2S5.3,197.4,5.3,127.1S63.8,0,136,0S266.7,56.9,266.7,127.1z"/>
	<path class="st1" d="M208.7,70h-17.6c-4.2,0.2-7.5,3.7-7.3,7.9c0.1,4,3.4,7.2,7.3,7.3h10.2l-62.9,62.6l-23-22.9
		c-1.4-1.4-3.4-2.2-5.4-2.2l0,0c-2,0-4,0.8-5.4,2.3l-29.6,30.3c-2.9,3-2.8,7.8,0.2,10.7c3,2.9,7.8,2.8,10.8-0.2L110,141l22.9,22.8
		c3,3,7.8,3,10.8,0c0,0,0,0,0,0l67.9-67.6v9.1c0.2,4.2,3.7,7.5,7.9,7.3c4-0.1,7.2-3.3,7.3-7.3V88.1C226.9,78.1,218.8,70,208.7,70
		C208.7,70,208.7,70,208.7,70z"/>
	<path class="st1" d="M219.3,125.9c-4.2,0-7.6,3.4-7.6,7.6c0,0,0,0,0,0V176c0,7.5-6.1,13.5-13.6,13.5H73.8
		c-7.5,0-13.6-6.1-13.6-13.5V85.2h39.9V99c0.2,4.2,3.7,7.5,7.9,7.3c4-0.1,7.2-3.3,7.3-7.3V59.3c0-11.4,9.3-20.6,20.7-20.6
		c11.4,0,20.6,9.2,20.6,20.6V70h-20.3c-4.2-0.2-7.7,3.1-7.9,7.3c-0.2,4.2,3.1,7.7,7.3,7.9c0.2,0,0.4,0,0.6,0h20.3V99
		c0.2,4.2,3.7,7.5,7.9,7.3c4-0.1,7.2-3.3,7.3-7.3V59.3c0-19.7-16.1-35.8-35.9-35.8c-19.8,0-35.9,16-35.9,35.8V70H52.6
		c-4.2,0-7.6,3.4-7.6,7.6c0,0,0,0,0,0v98.5c0,15.9,12.9,28.7,28.8,28.7h124.3c15.9,0,28.8-12.9,28.8-28.7v-42.5
		C226.9,129.3,223.5,125.9,219.3,125.9z"/>
	<rect x="510.4" y="455.3" style="fill:none;" width="6.4" height="3.9"/>
	<text transform="matrix(0.9904 0 0 1.21 266.6612 200.5902)" class="st1 st2 st3">FASTSHOP</text>
</g>
</svg>
